<mxfile host="app.diagrams.net" agent="Mozilla/5.0 (Windows NT 10.0; Win64; x64) AppleWebKit/537.36 (KHTML, like Gecko) Chrome/134.0.0.0 Safari/537.36" version="26.1.1" pages="5">
  <diagram name="CONTEXT" id="UaME_lrSHYEJ_UrBwXo2">
    <mxGraphModel dx="1434" dy="772" grid="1" gridSize="10" guides="1" tooltips="1" connect="1" arrows="1" fold="1" page="1" pageScale="1" pageWidth="850" pageHeight="1100" math="0" shadow="0">
      <root>
        <mxCell id="0" />
        <mxCell id="1" parent="0" />
        <mxCell id="0bEQjgoMfrxpZVptkMY_-1" value="HỆ THỐNG" style="ellipse;whiteSpace=wrap;html=1;" vertex="1" parent="1">
          <mxGeometry x="340" y="350" width="190" height="110" as="geometry" />
        </mxCell>
        <mxCell id="0bEQjgoMfrxpZVptkMY_-2" value="Khách hàng" style="rounded=0;whiteSpace=wrap;html=1;" vertex="1" parent="1">
          <mxGeometry x="20" y="580" width="140" height="80" as="geometry" />
        </mxCell>
        <mxCell id="0bEQjgoMfrxpZVptkMY_-3" value="Admin" style="rounded=0;whiteSpace=wrap;html=1;" vertex="1" parent="1">
          <mxGeometry x="40" y="40" width="120" height="60" as="geometry" />
        </mxCell>
        <mxCell id="0bEQjgoMfrxpZVptkMY_-4" value="Quản lí tài khoản" style="endArrow=classic;startArrow=classic;html=1;rounded=0;exitX=0.5;exitY=1;exitDx=0;exitDy=0;" edge="1" parent="1" source="0bEQjgoMfrxpZVptkMY_-3">
          <mxGeometry width="50" height="50" relative="1" as="geometry">
            <mxPoint x="400" y="420" as="sourcePoint" />
            <mxPoint x="340" y="400" as="targetPoint" />
            <Array as="points">
              <mxPoint x="100" y="240" />
              <mxPoint x="320" y="240" />
              <mxPoint x="320" y="400" />
            </Array>
          </mxGeometry>
        </mxCell>
        <mxCell id="0bEQjgoMfrxpZVptkMY_-5" value="Nhân viên" style="rounded=0;whiteSpace=wrap;html=1;" vertex="1" parent="1">
          <mxGeometry x="210" y="40" width="120" height="60" as="geometry" />
        </mxCell>
        <mxCell id="0bEQjgoMfrxpZVptkMY_-6" value="Quản lý" style="rounded=0;whiteSpace=wrap;html=1;" vertex="1" parent="1">
          <mxGeometry x="590" y="110" width="120" height="60" as="geometry" />
        </mxCell>
        <mxCell id="0bEQjgoMfrxpZVptkMY_-7" value="Nhà cung cấp" style="rounded=0;whiteSpace=wrap;html=1;" vertex="1" parent="1">
          <mxGeometry x="710" y="660" width="120" height="60" as="geometry" />
        </mxCell>
        <mxCell id="0bEQjgoMfrxpZVptkMY_-8" value="Đặt hàng" style="endArrow=classic;startArrow=classic;html=1;rounded=0;exitX=1;exitY=0;exitDx=0;exitDy=0;entryX=0.383;entryY=1;entryDx=0;entryDy=0;entryPerimeter=0;" edge="1" parent="1" source="0bEQjgoMfrxpZVptkMY_-2" target="0bEQjgoMfrxpZVptkMY_-1">
          <mxGeometry width="50" height="50" relative="1" as="geometry">
            <mxPoint x="400" y="420" as="sourcePoint" />
            <mxPoint x="450" y="370" as="targetPoint" />
            <Array as="points">
              <mxPoint x="413" y="580" />
            </Array>
          </mxGeometry>
        </mxCell>
        <mxCell id="0bEQjgoMfrxpZVptkMY_-9" value="Nhắn tin" style="endArrow=classic;startArrow=classic;html=1;rounded=0;exitX=1;exitY=0.25;exitDx=0;exitDy=0;entryX=0.442;entryY=1.013;entryDx=0;entryDy=0;entryPerimeter=0;" edge="1" parent="1" source="0bEQjgoMfrxpZVptkMY_-2" target="0bEQjgoMfrxpZVptkMY_-1">
          <mxGeometry width="50" height="50" relative="1" as="geometry">
            <mxPoint x="400" y="420" as="sourcePoint" />
            <mxPoint x="450" y="370" as="targetPoint" />
            <Array as="points">
              <mxPoint x="424" y="600" />
            </Array>
          </mxGeometry>
        </mxCell>
        <mxCell id="0bEQjgoMfrxpZVptkMY_-10" value="Tìm người ngẫn nhiên(Assistants)" style="endArrow=classic;startArrow=classic;html=1;rounded=0;entryX=0.535;entryY=1.019;entryDx=0;entryDy=0;exitX=1;exitY=0.5;exitDx=0;exitDy=0;entryPerimeter=0;" edge="1" parent="1" source="0bEQjgoMfrxpZVptkMY_-2" target="0bEQjgoMfrxpZVptkMY_-1">
          <mxGeometry x="-0.182" width="50" height="50" relative="1" as="geometry">
            <mxPoint x="143" y="610" as="sourcePoint" />
            <mxPoint x="440" y="460" as="targetPoint" />
            <Array as="points">
              <mxPoint x="440" y="620" />
            </Array>
            <mxPoint as="offset" />
          </mxGeometry>
        </mxCell>
        <mxCell id="0bEQjgoMfrxpZVptkMY_-11" value="Đơn vị vận chuyển" style="rounded=0;whiteSpace=wrap;html=1;" vertex="1" parent="1">
          <mxGeometry x="750" y="400" width="120" height="60" as="geometry" />
        </mxCell>
        <mxCell id="0bEQjgoMfrxpZVptkMY_-12" value="Quản lý nhân viên" style="endArrow=classic;startArrow=classic;html=1;rounded=0;entryX=0.5;entryY=1;entryDx=0;entryDy=0;exitX=0.917;exitY=0.271;exitDx=0;exitDy=0;exitPerimeter=0;" edge="1" parent="1" source="0bEQjgoMfrxpZVptkMY_-1" target="0bEQjgoMfrxpZVptkMY_-6">
          <mxGeometry x="-0.1939" width="50" height="50" relative="1" as="geometry">
            <mxPoint x="520" y="400" as="sourcePoint" />
            <mxPoint x="450" y="370" as="targetPoint" />
            <Array as="points">
              <mxPoint x="514" y="320" />
              <mxPoint x="650" y="320" />
            </Array>
            <mxPoint as="offset" />
          </mxGeometry>
        </mxCell>
        <mxCell id="0bEQjgoMfrxpZVptkMY_-13" value="Guest" style="rounded=0;whiteSpace=wrap;html=1;" vertex="1" parent="1">
          <mxGeometry y="300" width="120" height="60" as="geometry" />
        </mxCell>
        <mxCell id="0bEQjgoMfrxpZVptkMY_-14" value="Thiết lập chính sách và quản lý hệ thống" style="endArrow=classic;startArrow=classic;html=1;rounded=0;entryX=0.012;entryY=0.345;entryDx=0;entryDy=0;entryPerimeter=0;" edge="1" parent="1" target="0bEQjgoMfrxpZVptkMY_-1">
          <mxGeometry x="-0.1142" width="50" height="50" relative="1" as="geometry">
            <mxPoint x="112" y="100" as="sourcePoint" />
            <mxPoint x="400" y="350" as="targetPoint" />
            <Array as="points">
              <mxPoint x="112" y="220" />
              <mxPoint x="343" y="220" />
            </Array>
            <mxPoint as="offset" />
          </mxGeometry>
        </mxCell>
        <mxCell id="0bEQjgoMfrxpZVptkMY_-15" value="Đăng ký,Đăng nhập" style="endArrow=classic;startArrow=classic;html=1;rounded=0;exitX=1;exitY=0.75;exitDx=0;exitDy=0;" edge="1" parent="1" source="0bEQjgoMfrxpZVptkMY_-2">
          <mxGeometry x="-0.1931" width="50" height="50" relative="1" as="geometry">
            <mxPoint x="260" y="400" as="sourcePoint" />
            <mxPoint x="454" y="460" as="targetPoint" />
            <Array as="points">
              <mxPoint x="454" y="640" />
            </Array>
            <mxPoint as="offset" />
          </mxGeometry>
        </mxCell>
        <mxCell id="0bEQjgoMfrxpZVptkMY_-16" value="Thanh toán,Chọn phương thức thanh toán" style="endArrow=classic;startArrow=classic;html=1;rounded=0;exitX=1;exitY=1;exitDx=0;exitDy=0;" edge="1" parent="1" source="0bEQjgoMfrxpZVptkMY_-2">
          <mxGeometry x="-0.26" width="50" height="50" relative="1" as="geometry">
            <mxPoint x="260" y="400" as="sourcePoint" />
            <mxPoint x="470" y="456" as="targetPoint" />
            <Array as="points">
              <mxPoint x="470" y="660" />
            </Array>
            <mxPoint as="offset" />
          </mxGeometry>
        </mxCell>
        <mxCell id="0bEQjgoMfrxpZVptkMY_-17" value="Theo dõi tình trạng đơn hàng" style="endArrow=classic;startArrow=classic;html=1;rounded=0;exitX=0.929;exitY=0;exitDx=0;exitDy=0;exitPerimeter=0;entryX=0.318;entryY=0.978;entryDx=0;entryDy=0;entryPerimeter=0;" edge="1" parent="1" source="0bEQjgoMfrxpZVptkMY_-2" target="0bEQjgoMfrxpZVptkMY_-1">
          <mxGeometry x="0.1879" y="1" width="50" height="50" relative="1" as="geometry">
            <mxPoint x="260" y="400" as="sourcePoint" />
            <mxPoint x="310" y="350" as="targetPoint" />
            <Array as="points">
              <mxPoint x="150" y="460" />
            </Array>
            <mxPoint as="offset" />
          </mxGeometry>
        </mxCell>
        <mxCell id="0bEQjgoMfrxpZVptkMY_-18" value="Đánh giá,Phản hồi về sản phảm và dịch vụ" style="endArrow=classic;startArrow=classic;html=1;rounded=0;exitX=0.574;exitY=0.025;exitDx=0;exitDy=0;exitPerimeter=0;entryX=0.109;entryY=0.83;entryDx=0;entryDy=0;entryPerimeter=0;" edge="1" parent="1" source="0bEQjgoMfrxpZVptkMY_-2" target="0bEQjgoMfrxpZVptkMY_-1">
          <mxGeometry x="0.2738" width="50" height="50" relative="1" as="geometry">
            <mxPoint x="170" y="360" as="sourcePoint" />
            <mxPoint x="220" y="310" as="targetPoint" />
            <Array as="points">
              <mxPoint x="100" y="440" />
            </Array>
            <mxPoint as="offset" />
          </mxGeometry>
        </mxCell>
        <mxCell id="0bEQjgoMfrxpZVptkMY_-19" value="Kiểm duyệt sản phẩm trước khi đăng bán" style="endArrow=classic;startArrow=classic;html=1;rounded=0;exitX=0.75;exitY=1;exitDx=0;exitDy=0;entryX=0.109;entryY=0.193;entryDx=0;entryDy=0;entryPerimeter=0;" edge="1" parent="1" source="0bEQjgoMfrxpZVptkMY_-3" target="0bEQjgoMfrxpZVptkMY_-1">
          <mxGeometry width="50" height="50" relative="1" as="geometry">
            <mxPoint x="160" y="350" as="sourcePoint" />
            <mxPoint x="360" y="360" as="targetPoint" />
            <Array as="points">
              <mxPoint x="130" y="200" />
              <mxPoint x="360" y="200" />
            </Array>
          </mxGeometry>
        </mxCell>
        <mxCell id="0bEQjgoMfrxpZVptkMY_-20" value="" style="endArrow=classic;startArrow=classic;html=1;rounded=0;entryX=0.74;entryY=0.949;entryDx=0;entryDy=0;entryPerimeter=0;exitX=0.25;exitY=0;exitDx=0;exitDy=0;" edge="1" parent="1" source="0bEQjgoMfrxpZVptkMY_-7" target="0bEQjgoMfrxpZVptkMY_-1">
          <mxGeometry width="50" height="50" relative="1" as="geometry">
            <mxPoint x="150" y="400" as="sourcePoint" />
            <mxPoint x="200" y="350" as="targetPoint" />
            <Array as="points">
              <mxPoint x="740" y="640" />
              <mxPoint x="480" y="640" />
            </Array>
          </mxGeometry>
        </mxCell>
        <mxCell id="0bEQjgoMfrxpZVptkMY_-21" value="Cung cấp nguyên liệu cho cửa hàng" style="edgeLabel;html=1;align=center;verticalAlign=middle;resizable=0;points=[];" vertex="1" connectable="0" parent="0bEQjgoMfrxpZVptkMY_-20">
          <mxGeometry x="-0.6181" y="-1" relative="1" as="geometry">
            <mxPoint x="-52" y="1" as="offset" />
          </mxGeometry>
        </mxCell>
        <mxCell id="0bEQjgoMfrxpZVptkMY_-22" value="Hệ thống gửi yêu cầu đặt hàng khi cần bổ sung" style="endArrow=classic;startArrow=classic;html=1;rounded=0;exitX=0.5;exitY=0;exitDx=0;exitDy=0;entryX=0.831;entryY=0.924;entryDx=0;entryDy=0;entryPerimeter=0;" edge="1" parent="1" source="0bEQjgoMfrxpZVptkMY_-7" target="0bEQjgoMfrxpZVptkMY_-1">
          <mxGeometry x="-0.2169" width="50" height="50" relative="1" as="geometry">
            <mxPoint x="710" y="660" as="sourcePoint" />
            <mxPoint x="500" y="450" as="targetPoint" />
            <Array as="points">
              <mxPoint x="770" y="620" />
              <mxPoint x="500" y="620" />
            </Array>
            <mxPoint as="offset" />
          </mxGeometry>
        </mxCell>
        <mxCell id="0bEQjgoMfrxpZVptkMY_-23" value="Xem danh sách sản phẩm ,thông tin cửa hàng" style="endArrow=classic;startArrow=classic;html=1;rounded=0;exitX=0.376;exitY=1.012;exitDx=0;exitDy=0;entryX=0;entryY=0.5;entryDx=0;entryDy=0;exitPerimeter=0;" edge="1" parent="1" source="0bEQjgoMfrxpZVptkMY_-13" target="0bEQjgoMfrxpZVptkMY_-1">
          <mxGeometry width="50" height="50" relative="1" as="geometry">
            <mxPoint x="210" y="400" as="sourcePoint" />
            <mxPoint x="260" y="350" as="targetPoint" />
            <Array as="points">
              <mxPoint x="45" y="400" />
              <mxPoint x="160" y="405" />
            </Array>
          </mxGeometry>
        </mxCell>
        <mxCell id="0bEQjgoMfrxpZVptkMY_-24" value="Cần đăng ký tài khoản để đặt hàng" style="endArrow=classic;html=1;rounded=0;entryX=0.25;entryY=1;entryDx=0;entryDy=0;exitX=0.012;exitY=0.626;exitDx=0;exitDy=0;exitPerimeter=0;" edge="1" parent="1" source="0bEQjgoMfrxpZVptkMY_-1" target="0bEQjgoMfrxpZVptkMY_-13">
          <mxGeometry width="50" height="50" relative="1" as="geometry">
            <mxPoint x="290" y="400" as="sourcePoint" />
            <mxPoint x="340" y="350" as="targetPoint" />
            <Array as="points">
              <mxPoint x="190" y="420" />
              <mxPoint x="30" y="420" />
            </Array>
          </mxGeometry>
        </mxCell>
        <mxCell id="0bEQjgoMfrxpZVptkMY_-25" value="Nhận đơn,chuẩn bị sản phẩm" style="endArrow=classic;startArrow=classic;html=1;rounded=0;entryX=0.25;entryY=1;entryDx=0;entryDy=0;exitX=0.319;exitY=0.048;exitDx=0;exitDy=0;exitPerimeter=0;" edge="1" parent="1" source="0bEQjgoMfrxpZVptkMY_-1" target="0bEQjgoMfrxpZVptkMY_-5">
          <mxGeometry x="0.3725" width="50" height="50" relative="1" as="geometry">
            <mxPoint x="290" y="400" as="sourcePoint" />
            <mxPoint x="340" y="350" as="targetPoint" />
            <Array as="points">
              <mxPoint x="400" y="140" />
              <mxPoint x="240" y="140" />
            </Array>
            <mxPoint as="offset" />
          </mxGeometry>
        </mxCell>
        <mxCell id="0bEQjgoMfrxpZVptkMY_-26" value="Cập nhật trạng thái đơn hàng" style="endArrow=classic;startArrow=classic;html=1;rounded=0;entryX=0.5;entryY=1;entryDx=0;entryDy=0;exitX=0.467;exitY=-0.018;exitDx=0;exitDy=0;exitPerimeter=0;" edge="1" parent="1" source="0bEQjgoMfrxpZVptkMY_-1" target="0bEQjgoMfrxpZVptkMY_-5">
          <mxGeometry x="0.5226" width="50" height="50" relative="1" as="geometry">
            <mxPoint x="440" y="340" as="sourcePoint" />
            <mxPoint x="340" y="350" as="targetPoint" />
            <Array as="points">
              <mxPoint x="429" y="120" />
              <mxPoint x="270" y="120" />
            </Array>
            <mxPoint as="offset" />
          </mxGeometry>
        </mxCell>
        <mxCell id="0bEQjgoMfrxpZVptkMY_-27" value="Hỗ trợ khách hàng" style="endArrow=classic;startArrow=classic;html=1;rounded=0;exitX=0.111;exitY=1.058;exitDx=0;exitDy=0;exitPerimeter=0;entryX=0.218;entryY=0.106;entryDx=0;entryDy=0;entryPerimeter=0;" edge="1" parent="1" source="0bEQjgoMfrxpZVptkMY_-5" target="0bEQjgoMfrxpZVptkMY_-1">
          <mxGeometry x="-0.3468" width="50" height="50" relative="1" as="geometry">
            <mxPoint x="290" y="400" as="sourcePoint" />
            <mxPoint x="340" y="350" as="targetPoint" />
            <Array as="points">
              <mxPoint x="223" y="160" />
              <mxPoint x="380" y="160" />
            </Array>
            <mxPoint as="offset" />
          </mxGeometry>
        </mxCell>
        <mxCell id="0bEQjgoMfrxpZVptkMY_-28" value="Giám sát hoạt động" style="endArrow=classic;startArrow=classic;html=1;rounded=0;exitX=0.735;exitY=0.064;exitDx=0;exitDy=0;entryX=0.25;entryY=1;entryDx=0;entryDy=0;exitPerimeter=0;" edge="1" parent="1" source="0bEQjgoMfrxpZVptkMY_-1" target="0bEQjgoMfrxpZVptkMY_-6">
          <mxGeometry x="-0.2649" width="50" height="50" relative="1" as="geometry">
            <mxPoint x="290" y="400" as="sourcePoint" />
            <mxPoint x="340" y="350" as="targetPoint" />
            <Array as="points">
              <mxPoint x="480" y="300" />
              <mxPoint x="620" y="300" />
            </Array>
            <mxPoint as="offset" />
          </mxGeometry>
        </mxCell>
        <mxCell id="0bEQjgoMfrxpZVptkMY_-29" value="Quản lý chương trình khuyến mãi" style="endArrow=classic;startArrow=classic;html=1;rounded=0;exitX=0.544;exitY=-0.01;exitDx=0;exitDy=0;exitPerimeter=0;entryX=0;entryY=1;entryDx=0;entryDy=0;" edge="1" parent="1" source="0bEQjgoMfrxpZVptkMY_-1" target="0bEQjgoMfrxpZVptkMY_-6">
          <mxGeometry width="50" height="50" relative="1" as="geometry">
            <mxPoint x="290" y="400" as="sourcePoint" />
            <mxPoint x="340" y="350" as="targetPoint" />
            <Array as="points">
              <mxPoint x="443" y="280" />
              <mxPoint x="590" y="280" />
            </Array>
          </mxGeometry>
        </mxCell>
        <mxCell id="0bEQjgoMfrxpZVptkMY_-30" value="Nhận đơn hàng từ hệ thống" style="endArrow=classic;startArrow=classic;html=1;rounded=0;entryX=0;entryY=0.25;entryDx=0;entryDy=0;" edge="1" parent="1" target="0bEQjgoMfrxpZVptkMY_-11">
          <mxGeometry width="50" height="50" relative="1" as="geometry">
            <mxPoint x="530" y="410" as="sourcePoint" />
            <mxPoint x="340" y="350" as="targetPoint" />
            <Array as="points">
              <mxPoint x="600" y="410" />
            </Array>
          </mxGeometry>
        </mxCell>
        <mxCell id="0bEQjgoMfrxpZVptkMY_-31" value="Cập nhật trạng thái vận chuyển" style="endArrow=classic;startArrow=classic;html=1;rounded=0;entryX=0;entryY=0.5;entryDx=0;entryDy=0;exitX=0.969;exitY=0.701;exitDx=0;exitDy=0;exitPerimeter=0;" edge="1" parent="1" source="0bEQjgoMfrxpZVptkMY_-1" target="0bEQjgoMfrxpZVptkMY_-11">
          <mxGeometry width="50" height="50" relative="1" as="geometry">
            <mxPoint x="290" y="400" as="sourcePoint" />
            <mxPoint x="340" y="350" as="targetPoint" />
          </mxGeometry>
        </mxCell>
        <mxCell id="0bEQjgoMfrxpZVptkMY_-32" value="Theo dõi báo cáo,thống kế" style="endArrow=classic;startArrow=classic;html=1;rounded=0;exitX=0.984;exitY=0.387;exitDx=0;exitDy=0;exitPerimeter=0;entryX=0.75;entryY=1;entryDx=0;entryDy=0;" edge="1" parent="1" source="0bEQjgoMfrxpZVptkMY_-1" target="0bEQjgoMfrxpZVptkMY_-6">
          <mxGeometry x="-0.3588" width="50" height="50" relative="1" as="geometry">
            <mxPoint x="290" y="400" as="sourcePoint" />
            <mxPoint x="340" y="350" as="targetPoint" />
            <Array as="points">
              <mxPoint x="527" y="340" />
              <mxPoint x="680" y="340" />
            </Array>
            <mxPoint as="offset" />
          </mxGeometry>
        </mxCell>
        <mxCell id="0bEQjgoMfrxpZVptkMY_-33" value="" style="rounded=0;whiteSpace=wrap;html=1;" vertex="1" parent="1">
          <mxGeometry x="120" y="760" width="560" height="120" as="geometry" />
        </mxCell>
        <mxCell id="0bEQjgoMfrxpZVptkMY_-34" value="System" style="ellipse;whiteSpace=wrap;html=1;" vertex="1" parent="1">
          <mxGeometry x="150" y="780" width="120" height="80" as="geometry" />
        </mxCell>
        <mxCell id="0bEQjgoMfrxpZVptkMY_-35" value="Actor" style="rounded=0;whiteSpace=wrap;html=1;" vertex="1" parent="1">
          <mxGeometry x="470" y="790" width="120" height="60" as="geometry" />
        </mxCell>
        <mxCell id="0bEQjgoMfrxpZVptkMY_-36" value="Interation" style="endArrow=classic;html=1;rounded=0;entryX=0.643;entryY=0.667;entryDx=0;entryDy=0;entryPerimeter=0;" edge="1" parent="1">
          <mxGeometry width="50" height="50" relative="1" as="geometry">
            <mxPoint x="309.96" y="824.98" as="sourcePoint" />
            <mxPoint x="410.0399999999999" y="815.02" as="targetPoint" />
          </mxGeometry>
        </mxCell>
      </root>
    </mxGraphModel>
  </diagram>
  <diagram id="BZTIRNCxtp69p1Y_-32W" name="USECASE">
    <mxGraphModel dx="1593" dy="858" grid="1" gridSize="10" guides="1" tooltips="1" connect="1" arrows="1" fold="1" page="1" pageScale="1" pageWidth="850" pageHeight="1100" math="0" shadow="0">
      <root>
        <mxCell id="0" />
        <mxCell id="1" parent="0" />
        <mxCell id="DkjyJq_lKBYllYSpV5Oh-1" value="Khách hàng" style="shape=umlActor;verticalLabelPosition=bottom;verticalAlign=top;html=1;outlineConnect=0;" vertex="1" parent="1">
          <mxGeometry x="60" y="610" width="30" height="60" as="geometry" />
        </mxCell>
        <mxCell id="DkjyJq_lKBYllYSpV5Oh-2" value="Quản lý" style="shape=umlActor;verticalLabelPosition=bottom;verticalAlign=top;html=1;outlineConnect=0;" vertex="1" parent="1">
          <mxGeometry x="620" y="180" width="30" height="60" as="geometry" />
        </mxCell>
        <mxCell id="DkjyJq_lKBYllYSpV5Oh-3" value="Nh&lt;span style=&quot;background-color: transparent; color: light-dark(rgb(0, 0, 0), rgb(255, 255, 255));&quot;&gt;ân viên&lt;/span&gt;" style="shape=umlActor;verticalLabelPosition=bottom;verticalAlign=top;html=1;outlineConnect=0;" vertex="1" parent="1">
          <mxGeometry x="160" y="730" width="30" height="60" as="geometry" />
        </mxCell>
        <mxCell id="DkjyJq_lKBYllYSpV5Oh-5" value="Xem menu Chọn loại trà sữa" style="ellipse;whiteSpace=wrap;html=1;" vertex="1" parent="1">
          <mxGeometry x="305" y="300" width="120" height="80" as="geometry" />
        </mxCell>
        <mxCell id="DkjyJq_lKBYllYSpV5Oh-6" value="Login" style="ellipse;whiteSpace=wrap;html=1;" vertex="1" parent="1">
          <mxGeometry x="570" y="490" width="120" height="80" as="geometry" />
        </mxCell>
        <mxCell id="DkjyJq_lKBYllYSpV5Oh-7" value="Đặt hàng" style="ellipse;whiteSpace=wrap;html=1;" vertex="1" parent="1">
          <mxGeometry x="210" y="490" width="120" height="80" as="geometry" />
        </mxCell>
        <mxCell id="DkjyJq_lKBYllYSpV5Oh-8" value="Thanh toán" style="ellipse;whiteSpace=wrap;html=1;" vertex="1" parent="1">
          <mxGeometry x="280" y="670" width="120" height="80" as="geometry" />
        </mxCell>
        <mxCell id="DkjyJq_lKBYllYSpV5Oh-9" value="Kiểm tra trạng thái đơn hàng" style="ellipse;whiteSpace=wrap;html=1;" vertex="1" parent="1">
          <mxGeometry x="360" y="750" width="120" height="80" as="geometry" />
        </mxCell>
        <mxCell id="DkjyJq_lKBYllYSpV5Oh-10" value="Xác nhận đơn hàng" style="ellipse;whiteSpace=wrap;html=1;" vertex="1" parent="1">
          <mxGeometry x="330" y="870" width="120" height="80" as="geometry" />
        </mxCell>
        <mxCell id="DkjyJq_lKBYllYSpV5Oh-13" value="Cập nhật trạng thái hàng di chuyển" style="ellipse;whiteSpace=wrap;html=1;" vertex="1" parent="1">
          <mxGeometry x="620" y="690" width="120" height="80" as="geometry" />
        </mxCell>
        <mxCell id="2hnnUrCCODUDAO0wbJSL-1" value="Xác nhận giao hàng" style="ellipse;whiteSpace=wrap;html=1;" vertex="1" parent="1">
          <mxGeometry x="730" y="630" width="120" height="80" as="geometry" />
        </mxCell>
        <mxCell id="2hnnUrCCODUDAO0wbJSL-2" value="Shipper" style="shape=umlActor;verticalLabelPosition=bottom;verticalAlign=top;html=1;outlineConnect=0;" vertex="1" parent="1">
          <mxGeometry x="790" y="780" width="30" height="60" as="geometry" />
        </mxCell>
        <mxCell id="2hnnUrCCODUDAO0wbJSL-5" value="" style="endArrow=classic;html=1;rounded=0;exitX=0;exitY=0.3333333333333333;exitDx=0;exitDy=0;exitPerimeter=0;entryX=0.758;entryY=0.938;entryDx=0;entryDy=0;entryPerimeter=0;" edge="1" parent="1" source="2hnnUrCCODUDAO0wbJSL-2" target="DkjyJq_lKBYllYSpV5Oh-13">
          <mxGeometry width="50" height="50" relative="1" as="geometry">
            <mxPoint x="400" y="670" as="sourcePoint" />
            <mxPoint x="450" y="620" as="targetPoint" />
          </mxGeometry>
        </mxCell>
        <mxCell id="2hnnUrCCODUDAO0wbJSL-6" value="" style="endArrow=classic;html=1;rounded=0;exitX=0;exitY=0.3333333333333333;exitDx=0;exitDy=0;exitPerimeter=0;" edge="1" parent="1" source="2hnnUrCCODUDAO0wbJSL-2" target="2hnnUrCCODUDAO0wbJSL-1">
          <mxGeometry width="50" height="50" relative="1" as="geometry">
            <mxPoint x="400" y="670" as="sourcePoint" />
            <mxPoint x="450" y="620" as="targetPoint" />
          </mxGeometry>
        </mxCell>
        <mxCell id="2hnnUrCCODUDAO0wbJSL-7" value="" style="endArrow=classic;html=1;rounded=0;exitX=0;exitY=0.3333333333333333;exitDx=0;exitDy=0;exitPerimeter=0;entryX=0.96;entryY=0.66;entryDx=0;entryDy=0;entryPerimeter=0;" edge="1" parent="1" source="2hnnUrCCODUDAO0wbJSL-2" target="DkjyJq_lKBYllYSpV5Oh-9">
          <mxGeometry width="50" height="50" relative="1" as="geometry">
            <mxPoint x="390" y="660" as="sourcePoint" />
            <mxPoint x="440" y="610" as="targetPoint" />
          </mxGeometry>
        </mxCell>
        <mxCell id="2hnnUrCCODUDAO0wbJSL-8" value="" style="endArrow=classic;html=1;rounded=0;entryX=0;entryY=1;entryDx=0;entryDy=0;exitX=1;exitY=0.3333333333333333;exitDx=0;exitDy=0;exitPerimeter=0;" edge="1" parent="1" source="DkjyJq_lKBYllYSpV5Oh-1" target="DkjyJq_lKBYllYSpV5Oh-7">
          <mxGeometry width="50" height="50" relative="1" as="geometry">
            <mxPoint x="500" y="730" as="sourcePoint" />
            <mxPoint x="550" y="680" as="targetPoint" />
          </mxGeometry>
        </mxCell>
        <mxCell id="2hnnUrCCODUDAO0wbJSL-9" value="Admin" style="shape=umlActor;verticalLabelPosition=bottom;verticalAlign=top;html=1;outlineConnect=0;" vertex="1" parent="1">
          <mxGeometry x="950" y="470" width="30" height="60" as="geometry" />
        </mxCell>
        <mxCell id="2hnnUrCCODUDAO0wbJSL-10" value="Quản lý hệ thống" style="ellipse;whiteSpace=wrap;html=1;" vertex="1" parent="1">
          <mxGeometry x="760" y="450" width="120" height="80" as="geometry" />
        </mxCell>
        <mxCell id="2hnnUrCCODUDAO0wbJSL-11" value="Phân quyền người dùng" style="ellipse;whiteSpace=wrap;html=1;" vertex="1" parent="1">
          <mxGeometry x="810" y="540" width="120" height="80" as="geometry" />
        </mxCell>
        <mxCell id="2hnnUrCCODUDAO0wbJSL-12" value="" style="endArrow=classic;html=1;rounded=0;entryX=1;entryY=0.5;entryDx=0;entryDy=0;exitX=0;exitY=0.3333333333333333;exitDx=0;exitDy=0;exitPerimeter=0;" edge="1" parent="1" source="2hnnUrCCODUDAO0wbJSL-9" target="2hnnUrCCODUDAO0wbJSL-10">
          <mxGeometry width="50" height="50" relative="1" as="geometry">
            <mxPoint x="420" y="630" as="sourcePoint" />
            <mxPoint x="470" y="580" as="targetPoint" />
          </mxGeometry>
        </mxCell>
        <mxCell id="2hnnUrCCODUDAO0wbJSL-13" value="" style="endArrow=classic;html=1;rounded=0;entryX=1;entryY=0.5;entryDx=0;entryDy=0;exitX=0;exitY=0.3333333333333333;exitDx=0;exitDy=0;exitPerimeter=0;" edge="1" parent="1" source="2hnnUrCCODUDAO0wbJSL-9" target="2hnnUrCCODUDAO0wbJSL-11">
          <mxGeometry width="50" height="50" relative="1" as="geometry">
            <mxPoint x="420" y="630" as="sourcePoint" />
            <mxPoint x="470" y="580" as="targetPoint" />
          </mxGeometry>
        </mxCell>
        <mxCell id="2hnnUrCCODUDAO0wbJSL-14" value="Quản lý nhân viên" style="ellipse;whiteSpace=wrap;html=1;" vertex="1" parent="1">
          <mxGeometry x="730" y="260" width="120" height="80" as="geometry" />
        </mxCell>
        <mxCell id="2hnnUrCCODUDAO0wbJSL-15" value="Xem danh sách nhân viên" style="ellipse;whiteSpace=wrap;html=1;" vertex="1" parent="1">
          <mxGeometry x="820" y="360" width="120" height="80" as="geometry" />
        </mxCell>
        <mxCell id="2hnnUrCCODUDAO0wbJSL-16" value="Quản lý menu" style="ellipse;whiteSpace=wrap;html=1;" vertex="1" parent="1">
          <mxGeometry x="370" y="210" width="120" height="80" as="geometry" />
        </mxCell>
        <mxCell id="2hnnUrCCODUDAO0wbJSL-17" value="" style="endArrow=classic;html=1;rounded=0;exitX=0;exitY=0.3333333333333333;exitDx=0;exitDy=0;exitPerimeter=0;entryX=1;entryY=0.5;entryDx=0;entryDy=0;" edge="1" parent="1" source="DkjyJq_lKBYllYSpV5Oh-2" target="2hnnUrCCODUDAO0wbJSL-16">
          <mxGeometry width="50" height="50" relative="1" as="geometry">
            <mxPoint x="420" y="550" as="sourcePoint" />
            <mxPoint x="370" y="290" as="targetPoint" />
          </mxGeometry>
        </mxCell>
        <mxCell id="2hnnUrCCODUDAO0wbJSL-22" value="&amp;lt;&amp;lt;extends&amp;gt;&amp;gt;" style="endArrow=open;endSize=12;dashed=1;html=1;rounded=0;exitX=0.5;exitY=0;exitDx=0;exitDy=0;entryX=1;entryY=0.5;entryDx=0;entryDy=0;" edge="1" parent="1" source="2hnnUrCCODUDAO0wbJSL-15" target="2hnnUrCCODUDAO0wbJSL-14">
          <mxGeometry width="160" relative="1" as="geometry">
            <mxPoint x="450" y="350" as="sourcePoint" />
            <mxPoint x="620" y="320" as="targetPoint" />
          </mxGeometry>
        </mxCell>
        <mxCell id="2hnnUrCCODUDAO0wbJSL-23" value="&amp;lt;&amp;lt;include&amp;gt;&amp;gt;" style="endArrow=open;endSize=12;dashed=1;html=1;rounded=0;exitX=0;exitY=1;exitDx=0;exitDy=0;entryX=0.5;entryY=0;entryDx=0;entryDy=0;" edge="1" parent="1" source="2hnnUrCCODUDAO0wbJSL-14" target="DkjyJq_lKBYllYSpV5Oh-6">
          <mxGeometry width="160" relative="1" as="geometry">
            <mxPoint x="785" y="390" as="sourcePoint" />
            <mxPoint x="789" y="349" as="targetPoint" />
          </mxGeometry>
        </mxCell>
        <mxCell id="2hnnUrCCODUDAO0wbJSL-24" value="&amp;lt;&amp;lt;include&amp;gt;&amp;gt;" style="endArrow=open;endSize=12;dashed=1;html=1;rounded=0;exitX=0.829;exitY=0.949;exitDx=0;exitDy=0;entryX=0.429;entryY=0.055;entryDx=0;entryDy=0;exitPerimeter=0;entryPerimeter=0;" edge="1" parent="1" source="2hnnUrCCODUDAO0wbJSL-16" target="DkjyJq_lKBYllYSpV5Oh-6">
          <mxGeometry width="160" relative="1" as="geometry">
            <mxPoint x="758" y="338" as="sourcePoint" />
            <mxPoint x="640" y="500" as="targetPoint" />
          </mxGeometry>
        </mxCell>
        <mxCell id="2hnnUrCCODUDAO0wbJSL-25" value="" style="endArrow=classic;html=1;rounded=0;entryX=0;entryY=0.5;entryDx=0;entryDy=0;exitX=1;exitY=0.3333333333333333;exitDx=0;exitDy=0;exitPerimeter=0;" edge="1" parent="1" source="DkjyJq_lKBYllYSpV5Oh-1" target="DkjyJq_lKBYllYSpV5Oh-8">
          <mxGeometry width="50" height="50" relative="1" as="geometry">
            <mxPoint x="220" y="720" as="sourcePoint" />
            <mxPoint x="408" y="518" as="targetPoint" />
          </mxGeometry>
        </mxCell>
        <mxCell id="2hnnUrCCODUDAO0wbJSL-26" value="Guest" style="shape=umlActor;verticalLabelPosition=bottom;verticalAlign=top;html=1;" vertex="1" parent="1">
          <mxGeometry x="230" y="200" width="30" height="60" as="geometry" />
        </mxCell>
        <mxCell id="2hnnUrCCODUDAO0wbJSL-27" value="" style="endArrow=classic;html=1;rounded=0;entryX=0;entryY=1;entryDx=0;entryDy=0;exitX=1;exitY=0.3333333333333333;exitDx=0;exitDy=0;exitPerimeter=0;" edge="1" parent="1" source="DkjyJq_lKBYllYSpV5Oh-1" target="DkjyJq_lKBYllYSpV5Oh-5">
          <mxGeometry width="50" height="50" relative="1" as="geometry">
            <mxPoint x="210" y="710" as="sourcePoint" />
            <mxPoint x="408" y="518" as="targetPoint" />
          </mxGeometry>
        </mxCell>
        <mxCell id="2hnnUrCCODUDAO0wbJSL-28" value="" style="endArrow=classic;html=1;rounded=0;exitX=1;exitY=0.3333333333333333;exitDx=0;exitDy=0;exitPerimeter=0;" edge="1" parent="1" source="2hnnUrCCODUDAO0wbJSL-26" target="DkjyJq_lKBYllYSpV5Oh-5">
          <mxGeometry width="50" height="50" relative="1" as="geometry">
            <mxPoint x="230" y="730" as="sourcePoint" />
            <mxPoint x="418" y="528" as="targetPoint" />
          </mxGeometry>
        </mxCell>
        <mxCell id="2hnnUrCCODUDAO0wbJSL-29" value="" style="endArrow=classic;html=1;rounded=0;entryX=0;entryY=0.5;entryDx=0;entryDy=0;exitX=1;exitY=0.3333333333333333;exitDx=0;exitDy=0;exitPerimeter=0;" edge="1" parent="1" source="DkjyJq_lKBYllYSpV5Oh-1" target="DkjyJq_lKBYllYSpV5Oh-9">
          <mxGeometry width="50" height="50" relative="1" as="geometry">
            <mxPoint x="240" y="740" as="sourcePoint" />
            <mxPoint x="428" y="538" as="targetPoint" />
          </mxGeometry>
        </mxCell>
        <mxCell id="WWEU4Oj0ffjX-Nwfm05e-2" value="" style="endArrow=classic;html=1;rounded=0;exitX=1;exitY=0.3333333333333333;exitDx=0;exitDy=0;exitPerimeter=0;" edge="1" parent="1" source="DkjyJq_lKBYllYSpV5Oh-2" target="2hnnUrCCODUDAO0wbJSL-14">
          <mxGeometry width="50" height="50" relative="1" as="geometry">
            <mxPoint x="630" y="210" as="sourcePoint" />
            <mxPoint x="510" y="260" as="targetPoint" />
          </mxGeometry>
        </mxCell>
        <mxCell id="WWEU4Oj0ffjX-Nwfm05e-3" value="&amp;lt;&amp;lt;include&amp;gt;&amp;gt;" style="endArrow=open;endSize=12;dashed=1;html=1;rounded=0;exitX=0.451;exitY=1.002;exitDx=0;exitDy=0;exitPerimeter=0;" edge="1" parent="1" source="WWEU4Oj0ffjX-Nwfm05e-4" target="DkjyJq_lKBYllYSpV5Oh-6">
          <mxGeometry width="160" relative="1" as="geometry">
            <mxPoint x="632" y="220" as="sourcePoint" />
            <mxPoint x="628" y="514" as="targetPoint" />
          </mxGeometry>
        </mxCell>
        <mxCell id="WWEU4Oj0ffjX-Nwfm05e-4" value="Xem thống kê doanh thu" style="ellipse;whiteSpace=wrap;html=1;" vertex="1" parent="1">
          <mxGeometry x="580" y="290" width="120" height="80" as="geometry" />
        </mxCell>
        <mxCell id="WWEU4Oj0ffjX-Nwfm05e-5" value="" style="endArrow=classic;html=1;rounded=0;exitX=0.5;exitY=0.5;exitDx=0;exitDy=0;exitPerimeter=0;entryX=0.5;entryY=0;entryDx=0;entryDy=0;" edge="1" parent="1" source="DkjyJq_lKBYllYSpV5Oh-2" target="WWEU4Oj0ffjX-Nwfm05e-4">
          <mxGeometry width="50" height="50" relative="1" as="geometry">
            <mxPoint x="660" y="210" as="sourcePoint" />
            <mxPoint x="759" y="281" as="targetPoint" />
          </mxGeometry>
        </mxCell>
        <mxCell id="WWEU4Oj0ffjX-Nwfm05e-6" value="&amp;lt;&amp;lt;include&amp;gt;&amp;gt;" style="endArrow=open;endSize=12;dashed=1;html=1;rounded=0;exitX=0.978;exitY=0.693;exitDx=0;exitDy=0;entryX=0;entryY=0;entryDx=0;entryDy=0;exitPerimeter=0;" edge="1" parent="1" source="DkjyJq_lKBYllYSpV5Oh-5" target="DkjyJq_lKBYllYSpV5Oh-6">
          <mxGeometry width="160" relative="1" as="geometry">
            <mxPoint x="489" y="296" as="sourcePoint" />
            <mxPoint x="631" y="504" as="targetPoint" />
          </mxGeometry>
        </mxCell>
        <mxCell id="WWEU4Oj0ffjX-Nwfm05e-7" value="&amp;lt;&amp;lt;include&amp;gt;&amp;gt;" style="endArrow=open;endSize=12;dashed=1;html=1;rounded=0;exitX=0.986;exitY=0.285;exitDx=0;exitDy=0;exitPerimeter=0;" edge="1" parent="1" source="DkjyJq_lKBYllYSpV5Oh-7">
          <mxGeometry width="160" relative="1" as="geometry">
            <mxPoint x="507" y="405" as="sourcePoint" />
            <mxPoint x="580" y="512" as="targetPoint" />
          </mxGeometry>
        </mxCell>
        <mxCell id="WWEU4Oj0ffjX-Nwfm05e-8" value="&amp;lt;&amp;lt;include&amp;gt;&amp;gt;" style="endArrow=open;endSize=12;dashed=1;html=1;rounded=0;exitX=1.021;exitY=0.39;exitDx=0;exitDy=0;exitPerimeter=0;" edge="1" parent="1" source="DkjyJq_lKBYllYSpV5Oh-8" target="WWEU4Oj0ffjX-Nwfm05e-13">
          <mxGeometry width="160" relative="1" as="geometry">
            <mxPoint x="517" y="415" as="sourcePoint" />
            <mxPoint x="608" y="522" as="targetPoint" />
          </mxGeometry>
        </mxCell>
        <mxCell id="WWEU4Oj0ffjX-Nwfm05e-9" value="Đặt hàng nhanh" style="ellipse;whiteSpace=wrap;html=1;" vertex="1" parent="1">
          <mxGeometry x="370" y="400" width="120" height="80" as="geometry" />
        </mxCell>
        <mxCell id="WWEU4Oj0ffjX-Nwfm05e-10" value="&amp;lt;&amp;lt;extends&amp;gt;&amp;gt;" style="endArrow=open;endSize=12;dashed=1;html=1;rounded=0;exitX=0.792;exitY=0.963;exitDx=0;exitDy=0;exitPerimeter=0;" edge="1" parent="1" source="WWEU4Oj0ffjX-Nwfm05e-9" target="DkjyJq_lKBYllYSpV5Oh-7">
          <mxGeometry width="160" relative="1" as="geometry">
            <mxPoint x="160" y="530" as="sourcePoint" />
            <mxPoint x="489" y="519" as="targetPoint" />
          </mxGeometry>
        </mxCell>
        <mxCell id="WWEU4Oj0ffjX-Nwfm05e-11" value="&amp;lt;&amp;lt;include&amp;gt;&amp;gt;" style="endArrow=open;endSize=12;dashed=1;html=1;rounded=0;exitX=0.608;exitY=0.025;exitDx=0;exitDy=0;exitPerimeter=0;entryX=0.6;entryY=0.963;entryDx=0;entryDy=0;entryPerimeter=0;" edge="1" parent="1" source="DkjyJq_lKBYllYSpV5Oh-13" target="DkjyJq_lKBYllYSpV5Oh-6">
          <mxGeometry width="160" relative="1" as="geometry">
            <mxPoint x="513" y="651" as="sourcePoint" />
            <mxPoint x="604" y="572" as="targetPoint" />
          </mxGeometry>
        </mxCell>
        <mxCell id="WWEU4Oj0ffjX-Nwfm05e-12" value="&amp;lt;&amp;lt;include&amp;gt;&amp;gt;" style="endArrow=open;endSize=12;dashed=1;html=1;rounded=0;exitX=0.583;exitY=0.013;exitDx=0;exitDy=0;exitPerimeter=0;entryX=1;entryY=1;entryDx=0;entryDy=0;" edge="1" parent="1" source="2hnnUrCCODUDAO0wbJSL-1" target="DkjyJq_lKBYllYSpV5Oh-6">
          <mxGeometry width="160" relative="1" as="geometry">
            <mxPoint x="523" y="661" as="sourcePoint" />
            <mxPoint x="614" y="582" as="targetPoint" />
          </mxGeometry>
        </mxCell>
        <mxCell id="WWEU4Oj0ffjX-Nwfm05e-13" value="Xác nhận thanh toán" style="ellipse;whiteSpace=wrap;html=1;" vertex="1" parent="1">
          <mxGeometry x="460" y="670" width="120" height="80" as="geometry" />
        </mxCell>
        <mxCell id="WWEU4Oj0ffjX-Nwfm05e-14" value="&amp;lt;&amp;lt;include&amp;gt;&amp;gt;" style="endArrow=open;endSize=12;dashed=1;html=1;rounded=0;exitX=0.592;exitY=0.025;exitDx=0;exitDy=0;exitPerimeter=0;entryX=0.25;entryY=0.875;entryDx=0;entryDy=0;entryPerimeter=0;" edge="1" parent="1" source="WWEU4Oj0ffjX-Nwfm05e-13" target="DkjyJq_lKBYllYSpV5Oh-6">
          <mxGeometry width="160" relative="1" as="geometry">
            <mxPoint x="533" y="671" as="sourcePoint" />
            <mxPoint x="624" y="592" as="targetPoint" />
          </mxGeometry>
        </mxCell>
        <mxCell id="WWEU4Oj0ffjX-Nwfm05e-15" value="" style="rounded=0;whiteSpace=wrap;html=1;" vertex="1" parent="1">
          <mxGeometry x="170" y="970" width="610" height="110" as="geometry" />
        </mxCell>
        <mxCell id="WWEU4Oj0ffjX-Nwfm05e-16" value="Actor" style="shape=umlActor;verticalLabelPosition=bottom;verticalAlign=top;html=1;outlineConnect=0;" vertex="1" parent="1">
          <mxGeometry x="230" y="990" width="30" height="60" as="geometry" />
        </mxCell>
        <mxCell id="WWEU4Oj0ffjX-Nwfm05e-17" value="Usecase" style="ellipse;whiteSpace=wrap;html=1;" vertex="1" parent="1">
          <mxGeometry x="600" y="980" width="120" height="80" as="geometry" />
        </mxCell>
        <mxCell id="WWEU4Oj0ffjX-Nwfm05e-19" value="Relationship" style="endArrow=open;endSize=12;dashed=1;html=1;rounded=0;" edge="1" parent="1">
          <mxGeometry width="160" relative="1" as="geometry">
            <mxPoint x="290" y="1024.5" as="sourcePoint" />
            <mxPoint x="410" y="1025" as="targetPoint" />
          </mxGeometry>
        </mxCell>
        <mxCell id="WWEU4Oj0ffjX-Nwfm05e-20" value="Interation" style="endArrow=classic;html=1;rounded=0;" edge="1" parent="1">
          <mxGeometry x="0.0526" y="-20" width="50" height="50" relative="1" as="geometry">
            <mxPoint x="470" y="1019.5" as="sourcePoint" />
            <mxPoint x="565" y="1019.5" as="targetPoint" />
            <mxPoint y="1" as="offset" />
          </mxGeometry>
        </mxCell>
        <mxCell id="WWEU4Oj0ffjX-Nwfm05e-23" value="" style="endArrow=classic;html=1;rounded=0;exitX=1;exitY=0.3333333333333333;exitDx=0;exitDy=0;exitPerimeter=0;" edge="1" parent="1" source="DkjyJq_lKBYllYSpV5Oh-3" target="DkjyJq_lKBYllYSpV5Oh-10">
          <mxGeometry width="50" height="50" relative="1" as="geometry">
            <mxPoint x="420" y="580" as="sourcePoint" />
            <mxPoint x="470" y="530" as="targetPoint" />
          </mxGeometry>
        </mxCell>
        <mxCell id="WWEU4Oj0ffjX-Nwfm05e-24" value="&amp;lt;&amp;lt;include&amp;gt;&amp;gt;" style="endArrow=open;endSize=12;dashed=1;html=1;rounded=0;exitX=0.875;exitY=0.238;exitDx=0;exitDy=0;exitPerimeter=0;entryX=0.5;entryY=1;entryDx=0;entryDy=0;" edge="1" parent="1" source="DkjyJq_lKBYllYSpV5Oh-10" target="DkjyJq_lKBYllYSpV5Oh-6">
          <mxGeometry x="0.4498" y="-4" width="160" relative="1" as="geometry">
            <mxPoint x="561" y="622" as="sourcePoint" />
            <mxPoint x="610" y="570" as="targetPoint" />
            <mxPoint as="offset" />
          </mxGeometry>
        </mxCell>
        <mxCell id="WWEU4Oj0ffjX-Nwfm05e-25" value="In hóa đơn" style="ellipse;whiteSpace=wrap;html=1;" vertex="1" parent="1">
          <mxGeometry x="340" y="530" width="120" height="80" as="geometry" />
        </mxCell>
        <mxCell id="WWEU4Oj0ffjX-Nwfm05e-26" value="" style="endArrow=classic;html=1;rounded=0;exitX=1;exitY=0.3333333333333333;exitDx=0;exitDy=0;exitPerimeter=0;entryX=0;entryY=0.5;entryDx=0;entryDy=0;" edge="1" parent="1" source="DkjyJq_lKBYllYSpV5Oh-3" target="WWEU4Oj0ffjX-Nwfm05e-25">
          <mxGeometry width="50" height="50" relative="1" as="geometry">
            <mxPoint x="420" y="580" as="sourcePoint" />
            <mxPoint x="470" y="530" as="targetPoint" />
          </mxGeometry>
        </mxCell>
        <mxCell id="WWEU4Oj0ffjX-Nwfm05e-27" value="&amp;lt;&amp;lt;include&amp;gt;&amp;gt;" style="endArrow=open;endSize=12;dashed=1;html=1;rounded=0;exitX=0.917;exitY=0.2;exitDx=0;exitDy=0;exitPerimeter=0;entryX=0.033;entryY=0.663;entryDx=0;entryDy=0;entryPerimeter=0;" edge="1" parent="1" source="WWEU4Oj0ffjX-Nwfm05e-25" target="DkjyJq_lKBYllYSpV5Oh-6">
          <mxGeometry width="160" relative="1" as="geometry">
            <mxPoint x="478" y="513" as="sourcePoint" />
            <mxPoint x="590" y="522" as="targetPoint" />
          </mxGeometry>
        </mxCell>
        <mxCell id="WWEU4Oj0ffjX-Nwfm05e-28" value="" style="endArrow=classic;html=1;rounded=0;exitX=1;exitY=0.3333333333333333;exitDx=0;exitDy=0;exitPerimeter=0;entryX=0.05;entryY=0.663;entryDx=0;entryDy=0;entryPerimeter=0;" edge="1" parent="1" source="DkjyJq_lKBYllYSpV5Oh-3" target="DkjyJq_lKBYllYSpV5Oh-9">
          <mxGeometry width="50" height="50" relative="1" as="geometry">
            <mxPoint x="200" y="760" as="sourcePoint" />
            <mxPoint x="431" y="867" as="targetPoint" />
          </mxGeometry>
        </mxCell>
        <mxCell id="WWEU4Oj0ffjX-Nwfm05e-29" value="&amp;lt;&amp;lt;include&amp;gt;&amp;gt;" style="endArrow=open;endSize=12;dashed=1;html=1;rounded=0;exitX=0.5;exitY=0;exitDx=0;exitDy=0;" edge="1" parent="1" source="DkjyJq_lKBYllYSpV5Oh-9">
          <mxGeometry width="160" relative="1" as="geometry">
            <mxPoint x="525" y="869" as="sourcePoint" />
            <mxPoint x="580" y="540" as="targetPoint" />
          </mxGeometry>
        </mxCell>
        <mxCell id="WWEU4Oj0ffjX-Nwfm05e-30" value="Cập nhật trạng thái đơn hàng" style="ellipse;whiteSpace=wrap;html=1;" vertex="1" parent="1">
          <mxGeometry x="490" y="870" width="120" height="80" as="geometry" />
        </mxCell>
        <mxCell id="WWEU4Oj0ffjX-Nwfm05e-31" value="" style="endArrow=classic;html=1;rounded=0;exitX=1;exitY=0.3333333333333333;exitDx=0;exitDy=0;exitPerimeter=0;" edge="1" parent="1" source="DkjyJq_lKBYllYSpV5Oh-3" target="WWEU4Oj0ffjX-Nwfm05e-30">
          <mxGeometry width="50" height="50" relative="1" as="geometry">
            <mxPoint x="200" y="760" as="sourcePoint" />
            <mxPoint x="376" y="813" as="targetPoint" />
          </mxGeometry>
        </mxCell>
        <mxCell id="WWEU4Oj0ffjX-Nwfm05e-32" value="" style="endArrow=classic;html=1;rounded=0;entryX=1;entryY=0.5;entryDx=0;entryDy=0;exitX=0;exitY=0.3333333333333333;exitDx=0;exitDy=0;exitPerimeter=0;" edge="1" parent="1" source="2hnnUrCCODUDAO0wbJSL-2" target="WWEU4Oj0ffjX-Nwfm05e-30">
          <mxGeometry width="50" height="50" relative="1" as="geometry">
            <mxPoint x="460" y="640" as="sourcePoint" />
            <mxPoint x="510" y="590" as="targetPoint" />
          </mxGeometry>
        </mxCell>
        <mxCell id="WWEU4Oj0ffjX-Nwfm05e-33" value="&amp;lt;&amp;lt;include&amp;gt;&amp;gt;" style="endArrow=open;endSize=12;dashed=1;html=1;rounded=0;exitX=0.614;exitY=-0.003;exitDx=0;exitDy=0;exitPerimeter=0;entryX=0.568;entryY=0.969;entryDx=0;entryDy=0;entryPerimeter=0;" edge="1" parent="1" source="WWEU4Oj0ffjX-Nwfm05e-30" target="DkjyJq_lKBYllYSpV5Oh-6">
          <mxGeometry x="-0.3372" y="-2" width="160" relative="1" as="geometry">
            <mxPoint x="703" y="702" as="sourcePoint" />
            <mxPoint x="652" y="577" as="targetPoint" />
            <mxPoint as="offset" />
          </mxGeometry>
        </mxCell>
        <mxCell id="WWEU4Oj0ffjX-Nwfm05e-34" value="Chuyển khoảng ví điện tử" style="ellipse;whiteSpace=wrap;html=1;" vertex="1" parent="1">
          <mxGeometry x="150" y="590" width="110" height="60" as="geometry" />
        </mxCell>
        <mxCell id="WWEU4Oj0ffjX-Nwfm05e-35" value="Trả tiền mặt" style="ellipse;whiteSpace=wrap;html=1;" vertex="1" parent="1">
          <mxGeometry x="380" y="615" width="80" height="30" as="geometry" />
        </mxCell>
        <mxCell id="WWEU4Oj0ffjX-Nwfm05e-36" value="&amp;lt;&amp;lt;extends&amp;gt;&amp;gt;" style="endArrow=open;endSize=12;dashed=1;html=1;rounded=0;exitX=0.397;exitY=1.052;exitDx=0;exitDy=0;entryX=0;entryY=0;entryDx=0;entryDy=0;exitPerimeter=0;" edge="1" parent="1" source="WWEU4Oj0ffjX-Nwfm05e-34" target="DkjyJq_lKBYllYSpV5Oh-8">
          <mxGeometry width="160" relative="1" as="geometry">
            <mxPoint x="475" y="487" as="sourcePoint" />
            <mxPoint x="336" y="525" as="targetPoint" />
          </mxGeometry>
        </mxCell>
        <mxCell id="WWEU4Oj0ffjX-Nwfm05e-37" value="&amp;lt;&amp;lt;extends&amp;gt;&amp;gt;" style="endArrow=open;endSize=12;dashed=1;html=1;rounded=0;exitX=0;exitY=1;exitDx=0;exitDy=0;entryX=0.79;entryY=0.15;entryDx=0;entryDy=0;entryPerimeter=0;" edge="1" parent="1" source="WWEU4Oj0ffjX-Nwfm05e-35" target="DkjyJq_lKBYllYSpV5Oh-8">
          <mxGeometry width="160" relative="1" as="geometry">
            <mxPoint x="485" y="497" as="sourcePoint" />
            <mxPoint x="346" y="535" as="targetPoint" />
          </mxGeometry>
        </mxCell>
        <mxCell id="WWEU4Oj0ffjX-Nwfm05e-38" value="&amp;lt;&amp;lt;include&amp;gt;&amp;gt;" style="endArrow=open;endSize=12;dashed=1;html=1;rounded=0;exitX=0.058;exitY=0.317;exitDx=0;exitDy=0;exitPerimeter=0;" edge="1" parent="1" source="2hnnUrCCODUDAO0wbJSL-10" target="DkjyJq_lKBYllYSpV5Oh-6">
          <mxGeometry width="160" relative="1" as="geometry">
            <mxPoint x="758" y="338" as="sourcePoint" />
            <mxPoint x="640" y="500" as="targetPoint" />
          </mxGeometry>
        </mxCell>
        <mxCell id="WWEU4Oj0ffjX-Nwfm05e-39" value="&amp;lt;&amp;lt;include&amp;gt;&amp;gt;" style="endArrow=open;endSize=12;dashed=1;html=1;rounded=0;exitX=0;exitY=0.5;exitDx=0;exitDy=0;entryX=0.994;entryY=0.608;entryDx=0;entryDy=0;entryPerimeter=0;" edge="1" parent="1" source="2hnnUrCCODUDAO0wbJSL-11" target="DkjyJq_lKBYllYSpV5Oh-6">
          <mxGeometry width="160" relative="1" as="geometry">
            <mxPoint x="768" y="348" as="sourcePoint" />
            <mxPoint x="650" y="510" as="targetPoint" />
          </mxGeometry>
        </mxCell>
      </root>
    </mxGraphModel>
  </diagram>
  <diagram id="A8_VcCSoJFCKrN_qW0Op" name="Activity_Diagram">
    <mxGraphModel dx="1434" dy="772" grid="1" gridSize="10" guides="1" tooltips="1" connect="1" arrows="1" fold="1" page="1" pageScale="1" pageWidth="850" pageHeight="1100" math="0" shadow="0">
      <root>
        <mxCell id="0" />
        <mxCell id="1" parent="0" />
      </root>
    </mxGraphModel>
  </diagram>
  <diagram id="Lj78HvGV9JmpTSLqF1na" name="Prototype_1">
    <mxGraphModel dx="1434" dy="772" grid="1" gridSize="10" guides="1" tooltips="1" connect="1" arrows="1" fold="1" page="1" pageScale="1" pageWidth="850" pageHeight="1100" math="0" shadow="0">
      <root>
        <mxCell id="0" />
        <mxCell id="1" parent="0" />
      </root>
    </mxGraphModel>
  </diagram>
  <diagram id="W75oaN6ETuFVhuuzaZg0" name="prototype_2">
    <mxGraphModel dx="1434" dy="1872" grid="1" gridSize="10" guides="1" tooltips="1" connect="1" arrows="1" fold="1" page="1" pageScale="1" pageWidth="850" pageHeight="1100" math="0" shadow="0">
      <root>
        <mxCell id="0" />
        <mxCell id="1" parent="0" />
        <mxCell id="yDzZzf7EQhp7WSfbn9ws-1" value="" style="strokeWidth=1;shadow=0;dashed=0;align=center;html=1;shape=mxgraph.mockup.containers.browserWindow;rSize=0;strokeColor=#666666;strokeColor2=#008cff;strokeColor3=#c4c4c4;mainText=,;recursiveResize=0;labelBackgroundColor=#E5CCFF;" vertex="1" parent="1">
          <mxGeometry x="30" y="-130" width="860" height="880" as="geometry" />
        </mxCell>
        <mxCell id="yDzZzf7EQhp7WSfbn9ws-2" value="Hide Land" style="strokeWidth=1;shadow=0;dashed=0;align=center;html=1;shape=mxgraph.mockup.containers.anchor;fontSize=17;fontColor=#666666;align=left;whiteSpace=wrap;" vertex="1" parent="yDzZzf7EQhp7WSfbn9ws-1">
          <mxGeometry x="60" y="12" width="110" height="26" as="geometry" />
        </mxCell>
        <mxCell id="yDzZzf7EQhp7WSfbn9ws-3" value="https://www.HideLand.com/product" style="strokeWidth=1;shadow=0;dashed=0;align=center;html=1;shape=mxgraph.mockup.containers.anchor;rSize=0;fontSize=17;fontColor=#666666;align=left;" vertex="1" parent="yDzZzf7EQhp7WSfbn9ws-1">
          <mxGeometry x="130" y="60" width="250" height="26" as="geometry" />
        </mxCell>
        <mxCell id="yDzZzf7EQhp7WSfbn9ws-4" value="&lt;p class=&quot;MsoNormal&quot;&gt;&lt;b&gt;&lt;span style=&quot;font-family:&amp;quot;Times New Roman&amp;quot;,serif&quot;&gt;Tên sản&lt;br&gt;phẩm:&lt;/span&gt;&lt;/b&gt;&lt;span style=&quot;font-family:&amp;quot;Times New Roman&amp;quot;,serif&quot;&gt;&amp;nbsp;Trà Ô&lt;br&gt;Long Cao Cấp&lt;/span&gt;&lt;/p&gt;&lt;p class=&quot;MsoNormal&quot;&gt;&lt;span style=&quot;font-family: &amp;quot;Times New Roman&amp;quot;, serif; background-color: transparent; color: light-dark(rgb(0, 0, 0), rgb(255, 255, 255));&quot;&gt;&amp;nbsp;&lt;/span&gt;&lt;b style=&quot;font-family: &amp;quot;Times New Roman&amp;quot;, serif; background-color: transparent; color: light-dark(rgb(0, 0, 0), rgb(255, 255, 255));&quot;&gt;Mã sản phẩm:&lt;/b&gt;&lt;span style=&quot;font-family: &amp;quot;Times New Roman&amp;quot;, serif; background-color: transparent; color: light-dark(rgb(0, 0, 0), rgb(255, 255, 255));&quot;&gt;&amp;nbsp;OLC-001&lt;/span&gt;&lt;/p&gt;&lt;p class=&quot;MsoNormal&quot;&gt;&lt;span style=&quot;font-family:&amp;quot;Times New Roman&amp;quot;,serif&quot;&gt;&amp;nbsp;&lt;b&gt;Danh mục sản phẩm:&lt;/b&gt;&amp;nbsp;Trà Ô Long&lt;/span&gt;&lt;/p&gt;&lt;p class=&quot;MsoNormal&quot;&gt;&lt;span style=&quot;font-family:&amp;quot;Times New Roman&amp;quot;,serif&quot;&gt;&lt;b&gt;Giá bán:&lt;/b&gt;&amp;nbsp;150.000 VNĐ/100g&lt;/span&gt;&lt;/p&gt;&lt;p class=&quot;MsoNormal&quot;&gt;&lt;span style=&quot;font-family:&amp;quot;Times New Roman&amp;quot;,serif&quot;&gt;&lt;b&gt;Trạng thái:&lt;/b&gt;&amp;nbsp;Còn hàng&lt;/span&gt;&lt;/p&gt;" style="shape=mxgraph.mockup.containers.marginRect;rectMarginTop=10;strokeColor=#666666;strokeWidth=1;dashed=0;rounded=1;arcSize=5;recursiveResize=0;html=1;whiteSpace=wrap;" vertex="1" parent="yDzZzf7EQhp7WSfbn9ws-1">
          <mxGeometry x="70" y="510" width="190" height="220" as="geometry" />
        </mxCell>
        <mxCell id="yDzZzf7EQhp7WSfbn9ws-5" value="Trà sữa ô long" style="shape=rect;strokeColor=none;fillColor=#008cff;strokeWidth=1;dashed=0;rounded=1;arcSize=20;fontColor=#ffffff;fontSize=17;spacing=2;spacingTop=-2;align=left;autosize=1;spacingLeft=4;resizeWidth=0;resizeHeight=0;perimeter=none;html=1;whiteSpace=wrap;" vertex="1" parent="yDzZzf7EQhp7WSfbn9ws-4">
          <mxGeometry x="5" width="140" height="30" as="geometry" />
        </mxCell>
        <mxCell id="yDzZzf7EQhp7WSfbn9ws-6" value="Thêm mới thông tin sản phẩm trà sữa" style="text;html=1;align=center;verticalAlign=middle;whiteSpace=wrap;rounded=0;fontSize=31;fontStyle=1;fontFamily=Times New Roman;" vertex="1" parent="yDzZzf7EQhp7WSfbn9ws-1">
          <mxGeometry x="140" y="150" width="520" height="30" as="geometry" />
        </mxCell>
        <mxCell id="yDzZzf7EQhp7WSfbn9ws-7" value="" style="shape=mxgraph.mockup.containers.marginRect;rectMarginTop=10;strokeColor=#666666;strokeWidth=1;dashed=0;rounded=1;arcSize=5;recursiveResize=0;html=1;whiteSpace=wrap;" vertex="1" parent="yDzZzf7EQhp7WSfbn9ws-1">
          <mxGeometry x="550" y="207.5" width="150" height="120" as="geometry" />
        </mxCell>
        <mxCell id="yDzZzf7EQhp7WSfbn9ws-8" value="trạng thái hàng" style="shape=rect;strokeColor=none;fillColor=#008cff;strokeWidth=1;dashed=0;rounded=1;arcSize=20;fontColor=#ffffff;fontSize=17;spacing=2;spacingTop=-2;align=left;autosize=1;spacingLeft=4;resizeWidth=0;resizeHeight=0;perimeter=none;html=1;whiteSpace=wrap;" vertex="1" parent="yDzZzf7EQhp7WSfbn9ws-7">
          <mxGeometry x="5" width="140" height="30" as="geometry" />
        </mxCell>
        <mxCell id="yDzZzf7EQhp7WSfbn9ws-9" value="Còn hàng" style="shape=ellipse;fillColor=#eeeeee;strokeColor=#999999;gradientColor=#cccccc;html=1;align=left;spacingLeft=4;fontSize=17;fontColor=#666666;labelPosition=right;shadow=0;" vertex="1" parent="yDzZzf7EQhp7WSfbn9ws-7">
          <mxGeometry x="15" y="65" width="15" height="15" as="geometry" />
        </mxCell>
        <mxCell id="yDzZzf7EQhp7WSfbn9ws-10" value="Hết hàng" style="shape=ellipse;fillColor=#eeeeee;strokeColor=#999999;gradientColor=#cccccc;html=1;align=left;spacingLeft=4;fontSize=17;fontColor=#666666;labelPosition=right;shadow=0;" vertex="1" parent="yDzZzf7EQhp7WSfbn9ws-7">
          <mxGeometry x="15" y="90" width="15" height="15" as="geometry" />
        </mxCell>
        <mxCell id="yDzZzf7EQhp7WSfbn9ws-11" value="Add new" style="strokeWidth=1;shadow=0;dashed=0;align=center;html=1;shape=mxgraph.mockup.buttons.button;mainText=;buttonStyle=round;fontSize=17;fontStyle=1;whiteSpace=wrap;fillColor=#d80073;fontColor=#ffffff;strokeColor=#A50040;" vertex="1" parent="yDzZzf7EQhp7WSfbn9ws-1">
          <mxGeometry x="130" y="352.5" width="130" height="60" as="geometry" />
        </mxCell>
        <mxCell id="yDzZzf7EQhp7WSfbn9ws-12" value="Update&amp;nbsp;" style="strokeWidth=1;shadow=0;dashed=0;align=center;html=1;shape=mxgraph.mockup.buttons.button;strokeColor=#666666;fontColor=#ffffff;mainText=;buttonStyle=round;fontSize=17;fontStyle=1;fillColor=#008cff;whiteSpace=wrap;" vertex="1" parent="yDzZzf7EQhp7WSfbn9ws-1">
          <mxGeometry x="290" y="352.5" width="130" height="60" as="geometry" />
        </mxCell>
        <mxCell id="yDzZzf7EQhp7WSfbn9ws-13" value="Delete" style="strokeWidth=1;shadow=0;dashed=0;align=center;html=1;shape=mxgraph.mockup.buttons.button;strokeColor=#666666;fontColor=#ffffff;mainText=;buttonStyle=round;fontSize=17;fontStyle=1;fillColor=#008cff;whiteSpace=wrap;" vertex="1" parent="yDzZzf7EQhp7WSfbn9ws-1">
          <mxGeometry x="460" y="352.5" width="130" height="60" as="geometry" />
        </mxCell>
        <mxCell id="yDzZzf7EQhp7WSfbn9ws-14" value="Help" style="strokeWidth=1;shadow=0;dashed=0;align=center;html=1;shape=mxgraph.mockup.buttons.button;strokeColor=#666666;fontColor=#ffffff;mainText=;buttonStyle=round;fontSize=17;fontStyle=1;fillColor=#008cff;whiteSpace=wrap;" vertex="1" parent="yDzZzf7EQhp7WSfbn9ws-1">
          <mxGeometry x="620" y="352.5" width="130" height="60" as="geometry" />
        </mxCell>
        <mxCell id="yDzZzf7EQhp7WSfbn9ws-15" value="DANH SÁCH TRÀ SỮA" style="text;html=1;align=center;verticalAlign=middle;whiteSpace=wrap;rounded=0;fontSize=20;fontStyle=1" vertex="1" parent="yDzZzf7EQhp7WSfbn9ws-1">
          <mxGeometry x="245" y="432.5" width="380" height="30" as="geometry" />
        </mxCell>
        <mxCell id="yDzZzf7EQhp7WSfbn9ws-16" value="&lt;span style=&quot;color: rgba(0, 0, 0, 0); font-family: monospace; font-size: 0px;&quot;&gt;%3CmxGraphModel%3E%3Croot%3E%3CmxCell%20id%3D%220%22%2F%3E%3CmxCell%20id%3D%221%22%20parent%3D%220%22%2F%3E%3CmxCell%20id%3D%222%22%20value%3D%22Setting%201%22%20style%3D%22shape%3Dellipse%3BfillColor%3D%23eeeeee%3BstrokeColor%3D%23999999%3BgradientColor%3D%23cccccc%3Bhtml%3D1%3Balign%3Dleft%3BspacingLeft%3D4%3BfontSize%3D17%3BfontColor%3D%23666666%3BlabelPosition%3Dright%3Bshadow%3D0%3B%22%20vertex%3D%221%22%20parent%3D%221%22%3E%3CmxGeometry%20x%3D%22405%22%20y%3D%22535%22%20width%3D%2215%22%20height%3D%2215%22%20as%3D%22geometry%22%2F%3E%3C%2FmxCell%3E%3C%2Froot%3E%3C%2FmxGraphModel%3E&lt;/span&gt;" style="strokeWidth=1;shadow=0;dashed=0;align=center;html=1;shape=mxgraph.mockup.forms.pwField;strokeColor=#999999;mainText=;align=left;fontColor=#666666;fontSize=17;spacingLeft=3;" vertex="1" parent="yDzZzf7EQhp7WSfbn9ws-1">
          <mxGeometry x="130" y="220" width="150" height="30" as="geometry" />
        </mxCell>
        <mxCell id="yDzZzf7EQhp7WSfbn9ws-17" value="&lt;span style=&quot;color: rgba(0, 0, 0, 0); font-family: monospace; font-size: 0px;&quot;&gt;%3CmxGraphModel%3E%3Croot%3E%3CmxCell%20id%3D%220%22%2F%3E%3CmxCell%20id%3D%221%22%20parent%3D%220%22%2F%3E%3CmxCell%20id%3D%222%22%20value%3D%22Setting%201%22%20style%3D%22shape%3Dellipse%3BfillColor%3D%23eeeeee%3BstrokeColor%3D%23999999%3BgradientColor%3D%23cccccc%3Bhtml%3D1%3Balign%3Dleft%3BspacingLeft%3D4%3BfontSize%3D17%3BfontColor%3D%23666666%3BlabelPosition%3Dright%3Bshadow%3D0%3B%22%20vertex%3D%221%22%20parent%3D%221%22%3E%3CmxGeometry%20x%3D%22405%22%20y%3D%22535%22%20width%3D%2215%22%20height%3D%2215%22%20as%3D%22geometry%22%2F%3E%3C%2FmxCell%3E%3C%2Froot%3E%3C%2FmxGraphModel%3E&lt;/span&gt;" style="strokeWidth=1;shadow=0;dashed=0;align=center;html=1;shape=mxgraph.mockup.forms.pwField;strokeColor=#999999;mainText=;align=left;fontColor=#666666;fontSize=17;spacingLeft=3;" vertex="1" parent="yDzZzf7EQhp7WSfbn9ws-1">
          <mxGeometry x="130" y="260" width="150" height="30" as="geometry" />
        </mxCell>
        <mxCell id="yDzZzf7EQhp7WSfbn9ws-18" value="Tên sản phẩm:" style="text;html=1;align=center;verticalAlign=middle;whiteSpace=wrap;rounded=0;" vertex="1" parent="yDzZzf7EQhp7WSfbn9ws-1">
          <mxGeometry x="30" y="220" width="110" height="30" as="geometry" />
        </mxCell>
        <mxCell id="yDzZzf7EQhp7WSfbn9ws-19" value="Mã sản phẩm:" style="text;html=1;align=center;verticalAlign=middle;whiteSpace=wrap;rounded=0;" vertex="1" parent="yDzZzf7EQhp7WSfbn9ws-1">
          <mxGeometry x="45" y="260" width="80" height="30" as="geometry" />
        </mxCell>
        <mxCell id="yDzZzf7EQhp7WSfbn9ws-20" value="&lt;span style=&quot;color: rgba(0, 0, 0, 0); font-family: monospace; font-size: 0px;&quot;&gt;%3CmxGraphModel%3E%3Croot%3E%3CmxCell%20id%3D%220%22%2F%3E%3CmxCell%20id%3D%221%22%20parent%3D%220%22%2F%3E%3CmxCell%20id%3D%222%22%20value%3D%22Setting%201%22%20style%3D%22shape%3Dellipse%3BfillColor%3D%23eeeeee%3BstrokeColor%3D%23999999%3BgradientColor%3D%23cccccc%3Bhtml%3D1%3Balign%3Dleft%3BspacingLeft%3D4%3BfontSize%3D17%3BfontColor%3D%23666666%3BlabelPosition%3Dright%3Bshadow%3D0%3B%22%20vertex%3D%221%22%20parent%3D%221%22%3E%3CmxGeometry%20x%3D%22405%22%20y%3D%22535%22%20width%3D%2215%22%20height%3D%2215%22%20as%3D%22geometry%22%2F%3E%3C%2FmxCell%3E%3C%2Froot%3E%3C%2FmxGraphModel%3E&lt;/span&gt;" style="strokeWidth=1;shadow=0;dashed=0;align=center;html=1;shape=mxgraph.mockup.forms.pwField;strokeColor=#999999;mainText=;align=left;fontColor=#666666;fontSize=17;spacingLeft=3;" vertex="1" parent="yDzZzf7EQhp7WSfbn9ws-1">
          <mxGeometry x="130" y="300" width="150" height="30" as="geometry" />
        </mxCell>
        <mxCell id="yDzZzf7EQhp7WSfbn9ws-21" value="Loại hàng:" style="text;html=1;align=center;verticalAlign=middle;whiteSpace=wrap;rounded=0;" vertex="1" parent="yDzZzf7EQhp7WSfbn9ws-1">
          <mxGeometry x="52" y="300" width="80" height="30" as="geometry" />
        </mxCell>
        <mxCell id="yDzZzf7EQhp7WSfbn9ws-22" value="&lt;p class=&quot;MsoNormal&quot;&gt;&lt;strong data-end=&quot;42&quot; data-start=&quot;25&quot;&gt;Tên sản phẩm:&lt;/strong&gt; Trà Xanh Thái Nguyên&lt;br data-end=&quot;66&quot; data-start=&quot;63&quot;&gt;&lt;br/&gt;&lt;strong data-end=&quot;82&quot; data-start=&quot;66&quot;&gt;Mã sản phẩm:&lt;/strong&gt; TXN-002 (hoặc mã tự động)&lt;/p&gt;&lt;p class=&quot;MsoNormal&quot;&gt;&lt;strong data-end=&quot;475&quot; data-start=&quot;453&quot;&gt;Danh mục sản phẩm:&lt;/strong&gt; Trà Xanh&lt;br data-end=&quot;487&quot; data-start=&quot;484&quot;&gt;&lt;br/&gt;&lt;strong data-end=&quot;499&quot; data-start=&quot;487&quot;&gt;Giá bán:&lt;/strong&gt; 120.000 VNĐ/100g&lt;br data-end=&quot;519&quot; data-start=&quot;516&quot;&gt;&lt;br/&gt;&lt;strong data-end=&quot;534&quot; data-start=&quot;519&quot;&gt;Trạng thái:&lt;/strong&gt; Còn hàng&lt;/p&gt;" style="shape=mxgraph.mockup.containers.marginRect;rectMarginTop=10;strokeColor=#666666;strokeWidth=1;dashed=0;rounded=1;arcSize=5;recursiveResize=0;html=1;whiteSpace=wrap;" vertex="1" parent="yDzZzf7EQhp7WSfbn9ws-1">
          <mxGeometry x="290" y="510" width="255" height="220" as="geometry" />
        </mxCell>
        <mxCell id="yDzZzf7EQhp7WSfbn9ws-23" value="Trà sữa Trà xanh thái nguyên" style="shape=rect;strokeColor=none;fillColor=#008cff;strokeWidth=1;dashed=0;rounded=1;arcSize=20;fontColor=#ffffff;fontSize=17;spacing=2;spacingTop=-2;align=left;autosize=1;spacingLeft=4;resizeWidth=0;resizeHeight=0;perimeter=none;html=1;whiteSpace=wrap;" vertex="1" parent="yDzZzf7EQhp7WSfbn9ws-22">
          <mxGeometry x="5" width="250" height="30" as="geometry" />
        </mxCell>
        <mxCell id="yDzZzf7EQhp7WSfbn9ws-24" value="&lt;p class=&quot;MsoNormal&quot;&gt;&lt;strong data-end=&quot;596&quot; data-start=&quot;579&quot;&gt;Tên sản phẩm:&lt;/strong&gt; Trà Sen Tây Hồ&lt;br data-end=&quot;614&quot; data-start=&quot;611&quot;&gt;&lt;br/&gt;&lt;strong data-end=&quot;630&quot; data-start=&quot;614&quot;&gt;Mã sản phẩm:&lt;/strong&gt; TSTH-003 (hoặc mã tự động)&lt;/p&gt;&lt;p class=&quot;MsoNormal&quot;&gt;&lt;strong data-end=&quot;1044&quot; data-start=&quot;1022&quot;&gt;Danh mục sản phẩm:&lt;/strong&gt; Trà Hương Sen&lt;br data-end=&quot;1061&quot; data-start=&quot;1058&quot;&gt;&lt;br/&gt;&lt;strong data-end=&quot;1073&quot; data-start=&quot;1061&quot;&gt;Giá bán:&lt;/strong&gt; 250.000 VNĐ/100g&lt;br data-end=&quot;1093&quot; data-start=&quot;1090&quot;&gt;&lt;br/&gt;&lt;strong data-end=&quot;1108&quot; data-start=&quot;1093&quot;&gt;Trạng thái:&lt;/strong&gt; Còn hàng&lt;/p&gt;" style="shape=mxgraph.mockup.containers.marginRect;rectMarginTop=10;strokeColor=#666666;strokeWidth=1;dashed=0;rounded=1;arcSize=5;recursiveResize=0;html=1;whiteSpace=wrap;" vertex="1" parent="yDzZzf7EQhp7WSfbn9ws-1">
          <mxGeometry x="580" y="510" width="190" height="220" as="geometry" />
        </mxCell>
        <mxCell id="yDzZzf7EQhp7WSfbn9ws-25" value="Trà sữa sen Tây hồ" style="shape=rect;strokeColor=none;fillColor=#008cff;strokeWidth=1;dashed=0;rounded=1;arcSize=20;fontColor=#ffffff;fontSize=17;spacing=2;spacingTop=-2;align=left;autosize=1;spacingLeft=4;resizeWidth=0;resizeHeight=0;perimeter=none;html=1;whiteSpace=wrap;" vertex="1" parent="yDzZzf7EQhp7WSfbn9ws-24">
          <mxGeometry x="5" width="170" height="30" as="geometry" />
        </mxCell>
        <mxCell id="yDzZzf7EQhp7WSfbn9ws-26" value="&lt;span style=&quot;color: rgba(0, 0, 0, 0); font-family: monospace; font-size: 0px;&quot;&gt;%3CmxGraphModel%3E%3Croot%3E%3CmxCell%20id%3D%220%22%2F%3E%3CmxCell%20id%3D%221%22%20parent%3D%220%22%2F%3E%3CmxCell%20id%3D%222%22%20value%3D%22Setting%201%22%20style%3D%22shape%3Dellipse%3BfillColor%3D%23eeeeee%3BstrokeColor%3D%23999999%3BgradientColor%3D%23cccccc%3Bhtml%3D1%3Balign%3Dleft%3BspacingLeft%3D4%3BfontSize%3D17%3BfontColor%3D%23666666%3BlabelPosition%3Dright%3Bshadow%3D0%3B%22%20vertex%3D%221%22%20parent%3D%221%22%3E%3CmxGeometry%20x%3D%22405%22%20y%3D%22535%22%20width%3D%2215%22%20height%3D%2215%22%20as%3D%22geometry%22%2F%3E%3C%2FmxCell%3E%3C%2Froot%3E%3C%2FmxGraphModel%3E&lt;/span&gt;" style="strokeWidth=1;shadow=0;dashed=0;align=center;html=1;shape=mxgraph.mockup.forms.pwField;strokeColor=#999999;mainText=;align=left;fontColor=#666666;fontSize=17;spacingLeft=3;" vertex="1" parent="yDzZzf7EQhp7WSfbn9ws-1">
          <mxGeometry x="390" y="220" width="150" height="30" as="geometry" />
        </mxCell>
        <mxCell id="yDzZzf7EQhp7WSfbn9ws-27" value="Đơn vị vận chuyển:&amp;nbsp;" style="text;html=1;align=center;verticalAlign=middle;whiteSpace=wrap;rounded=0;" vertex="1" parent="yDzZzf7EQhp7WSfbn9ws-1">
          <mxGeometry x="285" y="220" width="110" height="30" as="geometry" />
        </mxCell>
        <mxCell id="yDzZzf7EQhp7WSfbn9ws-28" value="&lt;span style=&quot;color: rgba(0, 0, 0, 0); font-family: monospace; font-size: 0px;&quot;&gt;%3CmxGraphModel%3E%3Croot%3E%3CmxCell%20id%3D%220%22%2F%3E%3CmxCell%20id%3D%221%22%20parent%3D%220%22%2F%3E%3CmxCell%20id%3D%222%22%20value%3D%22Setting%201%22%20style%3D%22shape%3Dellipse%3BfillColor%3D%23eeeeee%3BstrokeColor%3D%23999999%3BgradientColor%3D%23cccccc%3Bhtml%3D1%3Balign%3Dleft%3BspacingLeft%3D4%3BfontSize%3D17%3BfontColor%3D%23666666%3BlabelPosition%3Dright%3Bshadow%3D0%3B%22%20vertex%3D%221%22%20parent%3D%221%22%3E%3CmxGeometry%20x%3D%22405%22%20y%3D%22535%22%20width%3D%2215%22%20height%3D%2215%22%20as%3D%22geometry%22%2F%3E%3C%2FmxCell%3E%3C%2Froot%3E%3C%2FmxGraphModel%3E&lt;/span&gt;" style="strokeWidth=1;shadow=0;dashed=0;align=center;html=1;shape=mxgraph.mockup.forms.pwField;strokeColor=#999999;mainText=;align=left;fontColor=#666666;fontSize=17;spacingLeft=3;" vertex="1" parent="yDzZzf7EQhp7WSfbn9ws-1">
          <mxGeometry x="390" y="260" width="150" height="30" as="geometry" />
        </mxCell>
        <mxCell id="yDzZzf7EQhp7WSfbn9ws-29" value="Giá nhâp:" style="text;html=1;align=center;verticalAlign=middle;whiteSpace=wrap;rounded=0;" vertex="1" parent="yDzZzf7EQhp7WSfbn9ws-1">
          <mxGeometry x="285" y="260" width="110" height="30" as="geometry" />
        </mxCell>
        <mxCell id="yDzZzf7EQhp7WSfbn9ws-30" value="&lt;span style=&quot;color: rgba(0, 0, 0, 0); font-family: monospace; font-size: 0px;&quot;&gt;%3CmxGraphModel%3E%3Croot%3E%3CmxCell%20id%3D%220%22%2F%3E%3CmxCell%20id%3D%221%22%20parent%3D%220%22%2F%3E%3CmxCell%20id%3D%222%22%20value%3D%22Setting%201%22%20style%3D%22shape%3Dellipse%3BfillColor%3D%23eeeeee%3BstrokeColor%3D%23999999%3BgradientColor%3D%23cccccc%3Bhtml%3D1%3Balign%3Dleft%3BspacingLeft%3D4%3BfontSize%3D17%3BfontColor%3D%23666666%3BlabelPosition%3Dright%3Bshadow%3D0%3B%22%20vertex%3D%221%22%20parent%3D%221%22%3E%3CmxGeometry%20x%3D%22405%22%20y%3D%22535%22%20width%3D%2215%22%20height%3D%2215%22%20as%3D%22geometry%22%2F%3E%3C%2FmxCell%3E%3C%2Froot%3E%3C%2FmxGraphModel%3E&lt;/span&gt;" style="strokeWidth=1;shadow=0;dashed=0;align=center;html=1;shape=mxgraph.mockup.forms.pwField;strokeColor=#999999;mainText=;align=left;fontColor=#666666;fontSize=17;spacingLeft=3;" vertex="1" parent="yDzZzf7EQhp7WSfbn9ws-1">
          <mxGeometry x="390" y="297.5" width="150" height="30" as="geometry" />
        </mxCell>
        <mxCell id="yDzZzf7EQhp7WSfbn9ws-31" value="Giá bán:" style="text;html=1;align=center;verticalAlign=middle;whiteSpace=wrap;rounded=0;" vertex="1" parent="yDzZzf7EQhp7WSfbn9ws-1">
          <mxGeometry x="285" y="297.5" width="110" height="30" as="geometry" />
        </mxCell>
        <mxCell id="yDzZzf7EQhp7WSfbn9ws-32" value="NGÔ ANH THÂN THIỆN" style="text;html=1;align=center;verticalAlign=middle;whiteSpace=wrap;rounded=0;" vertex="1" parent="yDzZzf7EQhp7WSfbn9ws-1">
          <mxGeometry x="790" y="840" width="60" height="30" as="geometry" />
        </mxCell>
      </root>
    </mxGraphModel>
  </diagram>
</mxfile>
